<?xml version="1.0" standalone="no"?>
<!DOCTYPE svg PUBLIC "-//W3C//DTD SVG 20010904//EN"
 "http://www.w3.org/TR/2001/REC-SVG-20010904/DTD/svg10.dtd">
<svg version="1.0" xmlns="http://www.w3.org/2000/svg"
 width="195.000000pt" height="195.000000pt" viewBox="0 0 195.000000 195.000000"
 preserveAspectRatio="xMidYMid meet">

<g transform="translate(0.000000,195.000000) scale(0.100000,-0.100000)"
fill="white" stroke="none">
<path d="M676 1812 c-3 -5 -8 -34 -12 -64 l-6 -55 103 14 c57 8 239 34 404 57
l300 44 -377 1 c-207 0 -383 4 -391 7 -8 3 -18 1 -21 -4z" fill="white"/>
<path d="M1011 1343 c-258 -225 -470 -410 -470 -413 -1 -3 185 -109 411 -237
384 -215 414 -230 421 -211 4 12 6 22 5 23 -154 102 -617 421 -627 430 -12 12
5 35 121 157 440 467 619 658 614 658 -2 0 -216 -183 -475 -407z" fill="white"/>
<path d="M582 1720 c0 -14 2 -19 5 -12 2 6 2 18 0 25 -3 6 -5 1 -5 -13z" fill="white"/>
<path d="M570 1674 c0 -10 -74 -359 -164 -774 -90 -415 -162 -756 -161 -758 2
-2 31 17 66 42 l64 44 104 727 c57 399 100 729 97 732 -3 4 -6 -2 -6 -13z" fill="white"/>
<path d="M1532 380 c2 -6 32 -27 68 -47 74 -41 74 -38 -1 17 -53 40 -74 49
-67 30z" fill="white"/>
</g>
</svg>
